<svg width="300" height="300" viewBox="0 0 300 300" fill="none" xmlns="http://www.w3.org/2000/svg">
<path d="M0 66C0 29.5492 29.5492 0 66 0H234C270.451 0 300 29.5492 300 66V234C300 270.451 270.451 300 234 300H66C29.5492 300 0 270.451 0 234V66Z" fill="#C62828"/>
<path d="M252.791 130.784L222.987 100.966L205.764 118.197L235.446 148.015H198.801V233.559H101.081V148.015H64.4359L149.941 62.4716L179.746 92.2897L196.969 75.0587L167.286 45.2407C157.759 35.5864 142.246 35.5864 132.718 45.2407L47.2127 130.784C31.8218 146.182 42.6932 172.456 64.4359 172.456H76.6509V233.559C76.6509 247.002 87.6444 258 101.081 258H198.801C212.238 258 223.231 247.002 223.231 233.559V172.456H235.446C257.311 172.456 268.182 146.182 252.791 130.784Z" fill="white"/>
</svg>
